<svg xmlns="http://www.w3.org/2000/svg" version="1.1" xmlns:xlink="http://www.w3.org/1999/xlink" xmlns:svgjs="http://svgjs.dev/svgjs" width="1000" height="1000" viewBox="0 0 1000 1000"><rect width="1000" height="1000" fill="#000000"></rect><g transform="matrix(0.7,0,0,0.7,149.57575757575756,345.95549487777987)"><svg viewBox="0 0 396 174" data-background-color="#ffffff" preserveAspectRatio="xMidYMid meet" height="439" width="1000" xmlns="http://www.w3.org/2000/svg" xmlns:xlink="http://www.w3.org/1999/xlink"><g id="tight-bounds" transform="matrix(1,0,0,1,0.2400000000000091,0.22337745286789357)"><svg viewBox="0 0 395.52 173.5532450942642" height="173.5532450942642" width="395.52"><g><svg viewBox="0 0 397.4975999999999 174.4210113197355" height="173.5532450942642" width="395.52"><g><rect width="397.4975999999999" height="3.0325014034571103" x="0" y="94.1015990700467" fill="#ffffff" opacity="1" stroke-width="0" stroke="transparent" fill-opacity="1" class="rect-r$-0" data-fill-palette-color="primary" rx="1%" id="r$-0" data-palette-color="#096a2e"></rect></g><g><rect width="397.4975999999999" height="3.0325014034571103" x="0" y="101.10334314818589" fill="#ffffff" opacity="1" stroke-width="0" stroke="transparent" fill-opacity="1" class="rect-r$-1" data-fill-palette-color="primary" rx="1%" id="r$-1" data-palette-color="#096a2e"></rect></g><g transform="matrix(1,0,0,1,0.9887999999999693,112.07432990100715)"><svg viewBox="0 0 395.52 62.34668141872832" height="62.34668141872832" width="395.52"><g id="textblocktransform"><svg viewBox="0 0 395.52 62.34668141872832" height="62.34668141872832" width="395.52" id="textblock"><g><svg viewBox="0 0 395.52 33.62682080924856" height="33.62682080924856" width="395.52"><g transform="matrix(1,0,0,1,0,0)"><svg width="395.52" viewBox="2 -34.3 415.17 35.3" height="33.62682080924856" data-palette-color="#096a2e"><path d="M28.15-9.05L28.15-1.5Q25.1 0.4 19.35 0.4L19.35 0.4Q11.95 0.4 6.98-4.38 2-9.15 2-16.75L2-16.75Q2-24.45 6.83-29.3 11.65-34.15 19.4-34.15L19.4-34.15Q25.1-34.15 28.15-32.25L28.15-32.25 28.15-24.85Q24.4-27.15 19.8-27.15L19.8-27.15Q15.75-27.15 13-24.33 10.25-21.5 10.25-16.75L10.25-16.75Q10.25-12.1 13-9.38 15.75-6.65 20.1-6.65L20.1-6.65Q24.8-6.65 28.15-9.05L28.15-9.05ZM65.45-16.95L65.45-16.95Q65.45-9.2 60.97-4.42 56.5 0.35 49.05 0.35L49.05 0.35Q41.55 0.35 37.1-4.4 32.65-9.15 32.65-16.95L32.65-16.95Q32.65-24.7 37.12-29.48 41.6-34.25 49.05-34.25L49.05-34.25Q56.55-34.25 61-29.5 65.45-24.75 65.45-16.95ZM43.1-24.48Q40.9-21.7 40.9-16.95 40.9-12.2 43.1-9.43 45.3-6.65 49.05-6.65 52.8-6.65 55-9.43 57.2-12.2 57.2-16.95 57.2-21.7 55-24.48 52.8-27.25 49.05-27.25 45.3-27.25 43.1-24.48ZM82.2 0L82.2 0 70.7 0 70.7-33.7 82.3-33.7Q89.9-33.7 94.75-29.03 99.59-24.35 99.59-17.4L99.59-17.4Q99.59-9.3 94.82-4.65 90.05 0 82.2 0ZM82.05-27.35L82.05-27.35 78.6-27.35 78.6-6.3 82.1-6.3Q86.75-6.3 89.27-9.2 91.8-12.1 91.8-17.4L91.8-17.4Q91.8-21.9 89.25-24.63 86.7-27.35 82.05-27.35ZM113.04-33.7L113.04 0 105.34 0 105.34-33.7 113.04-33.7ZM127.74-13.95L127.74 0 120.04 0 120.04-33.7 128.49-33.7 136.34-19.75Q137.99-16.8 139.22-14.23 140.44-11.65 140.79-10.6L140.79-10.6 141.19-9.5Q140.69-13.2 140.69-19.75L140.69-19.75 140.69-33.7 148.39-33.7 148.39 0 139.94 0 131.89-13.95Q130.29-16.65 129.06-19.28 127.84-21.9 127.39-23.15L127.39-23.15 126.99-24.4Q127.74-19.9 127.74-13.95L127.74-13.95ZM183.94-20.1L183.94-3.1Q179.14 0.4 171.84 0.4L171.84 0.4Q163.74 0.4 158.69-4.25 153.64-8.9 153.64-16.9L153.64-16.9Q153.64-24.8 158.91-29.55 164.19-34.3 172.29-34.3L172.29-34.3Q177.99-34.3 182.14-32.2L182.14-32.2 182.14-24.5Q177.34-27.25 172.29-27.25L172.29-27.25Q167.54-27.25 164.74-24.43 161.94-21.6 161.94-16.9L161.94-16.9Q161.94-12.15 164.69-9.35 167.44-6.55 172.19-6.55L172.19-6.55Q174.34-6.55 176.44-7.2L176.44-7.2 176.44-13.55 170.99-13.55 170.99-20.1 183.94-20.1ZM217.34-33.7L217.34-13.05Q217.34-6.45 213.64-2.98 209.94 0.5 203.64 0.5L203.64 0.5Q197.44 0.5 193.69-2.95 189.94-6.4 189.94-12.7L189.94-12.7 189.94-33.7 197.64-33.7 197.64-12.75Q197.64-6.5 203.64-6.5 209.64-6.5 209.64-13L209.64-13 209.64-33.7 217.34-33.7ZM235.18-10.9L235.18-10.9 231.28-10.9 231.28 0 223.58 0 223.58-33.7 235.18-33.7Q240.78-33.7 244.26-30.55 247.73-27.4 247.73-22.55L247.73-22.55Q247.73-17 244.11-13.95 240.48-10.9 235.18-10.9ZM234.28-27.55L234.28-27.55 231.28-27.55 231.28-17 233.83-17Q239.93-17 239.93-22.55L239.93-22.55Q239.93-27.55 234.28-27.55ZM271.88-6.75L271.88 0 251.73 0 251.73-33.7 259.43-33.7 259.43-6.75 271.88-6.75ZM284.33-33.7L284.33 0 276.63 0 276.63-33.7 284.33-33.7ZM310.23-18.85L310.23-12.7 299.08-12.7 299.08 0 291.33 0 291.33-33.7 311.88-33.7 311.88-27.55 299.08-27.55 299.08-18.85 310.23-18.85ZM339.07-33.7L339.07-27.5 330.87-27.5 330.87 0 323.12 0 323.12-27.5 314.87-27.5 314.87-33.7 339.07-33.7ZM362.97-9L362.97-9Q362.97-4.8 359.8-2.27 356.62 0.25 350.92 0.25L350.92 0.25Q345.57 0.25 342.07-1.45L342.07-1.45 342.07-8.45Q346.07-6.25 350.32-6.25L350.32-6.25Q352.77-6.25 354.15-7.3 355.52-8.35 355.52-9.95L355.52-9.95Q355.52-13.6 348.77-13.6L348.77-13.6 347.02-13.6 347.02-19.6 348.77-19.6Q351.42-19.6 353.12-20.5 354.82-21.4 354.82-23.2L354.82-23.2Q354.82-26.65 350.32-26.65L350.32-26.65Q346.87-26.65 343.37-24.5L343.37-24.5 343.37-31.3Q347.07-33.15 350.82-33.15L350.82-33.15Q356.12-33.15 359.22-30.63 362.32-28.1 362.32-24.05L362.32-24.05Q362.32-18.5 357.27-16.4L357.27-16.4Q362.97-15.05 362.97-9ZM390.32-10.6L390.32-10.6Q390.32-5.65 387.19-2.33 384.07 1 378.67 1L378.67 1Q372.62 1 369.54-3.33 366.47-7.65 366.47-14.95L366.47-14.95Q366.47-23.3 371.04-28.3 375.62-33.3 382.62-33.3L382.62-33.3Q385.27-33.3 387.77-32.5L387.77-32.5 387.77-25.75Q385.82-26.8 383.22-26.8L383.22-26.8Q379.67-26.8 377.39-24.63 375.12-22.45 374.32-18.8L374.32-18.8Q377.02-21.1 380.77-21.1L380.77-21.1Q385.07-21.1 387.69-18.25 390.32-15.4 390.32-10.6ZM378.72-5.5L378.72-5.5Q380.67-5.5 381.77-6.85 382.87-8.2 382.87-10.45L382.87-10.45Q382.87-12.5 381.79-13.73 380.72-14.95 378.77-14.95L378.77-14.95Q376.07-14.95 374.02-12.8L374.02-12.8Q374.57-5.5 378.72-5.5ZM417.17-16.5L417.17-16.5Q417.17-8.8 414.14-4.2 411.12 0.4 405.22 0.4 399.32 0.4 396.32-4.17 393.32-8.75 393.32-16.5L393.32-16.5Q393.32-24.3 396.32-28.85 399.32-33.4 405.22-33.4 411.12-33.4 414.14-28.85 417.17-24.3 417.17-16.5ZM405.22-26.9Q400.77-26.9 400.77-16.5 400.77-6.1 405.22-6.1L405.22-6.1Q409.72-6.1 409.72-16.5 409.72-26.9 405.22-26.9L405.22-26.9Z" opacity="1" transform="matrix(1,0,0,1,0,0)" fill="#ffffff" class="wordmark-text-0" data-fill-palette-color="primary" id="text-0"></path></svg></g></svg></g><g transform="matrix(1,0,0,1,142.8348661764203,41.56530615861272)"><svg viewBox="0 0 109.85026764715941 20.781375260115606" height="20.781375260115606" width="109.85026764715941"><g transform="matrix(1,0,0,1,0,0)"><svg width="109.85026764715941" viewBox="1 -38.9 267.98 50.7" height="20.781375260115606" data-palette-color="#3c3c3c"><path d="M22.25-28.5Q23.25-28.5 24.15-28.3 25.05-28.1 25.65-27.8L25.65-27.8 25.65-18.25Q23.6-19.1 21.25-19.1L21.25-19.1Q18.1-19.1 16.4-17.45 14.7-15.8 14.7-12.55L14.7-12.55 14.7-8.2 19.2-8.2 19.2 0 1 0 1-8.2 3.2-8.2 3.2-19.6 1-19.6 1-27.8 14.7-27.8 14.7-24.15Q16.1-26.25 17.9-27.38 19.7-28.5 22.25-28.5L22.25-28.5ZM39.85-30.55L29.65-30.55 29.65-38.9 39.85-38.9 39.85-30.55ZM43.15 0L27.25 0 27.25-8.2 29.45-8.2 29.45-19.6 27.25-19.6 27.25-27.8 40.95-27.8 40.95-8.2 43.15-8.2 43.15 0ZM59.2 11.8Q55.6 11.8 52.32 11.3 49.05 10.8 47.25 10.15L47.25 10.15 47.25 1.95Q52.55 2.9 56.75 2.9L56.75 2.9Q59.6 2.9 60.87 2.02 62.15 1.15 62.15-1.25L62.15-1.25 62.15-3.4Q60.9-1.8 58.92-0.55 56.95 0.7 54.4 0.7L54.4 0.7Q49.3 0.7 46.72-3.1 44.15-6.9 44.15-13.9L44.15-13.9Q44.15-20.9 46.72-24.7 49.3-28.5 54.4-28.5L54.4-28.5Q56.95-28.5 58.92-27.25 60.9-26 62.15-24.4L62.15-24.4 62.15-27.8 75.84-27.8 75.84-19.6 73.65-19.6 73.65-2Q73.65 5.25 70.05 8.53 66.45 11.8 59.2 11.8L59.2 11.8ZM59.25-8.2Q60.7-8.2 61.42-8.97 62.15-9.75 62.15-11.4L62.15-11.4 62.15-16.4Q62.15-18.05 61.42-18.82 60.7-19.6 59.25-19.6L59.25-19.6Q57.8-19.6 57.07-18.82 56.35-18.05 56.35-16.4L56.35-16.4 56.35-11.4Q56.35-9.75 57.07-8.97 57.8-8.2 59.25-8.2L59.25-8.2ZM108.24-8.2L110.44-8.2 110.44 0 94.64 0 94.64-8.2 96.74-8.2 96.74-16.4Q96.74-18.05 96.04-18.82 95.34-19.6 93.94-19.6L93.94-19.6Q90.94-19.6 90.94-16.4L90.94-16.4 90.94-8.2 93.04-8.2 93.04 0 77.24 0 77.24-8.2 79.44-8.2 79.44-30.7 77.24-30.7 77.24-38.9 90.94-38.9 90.94-23.9Q92.79-26.2 94.94-27.35 97.09-28.5 99.94-28.5L99.94-28.5Q104.09-28.5 106.17-25.9 108.24-23.3 108.24-18.75L108.24-18.75 108.24-8.2ZM124.39 0.7Q119.09 0.7 116.42-1.88 113.74-4.45 113.74-10.55L113.74-10.55 113.74-19.6 111.54-19.6 111.54-27.8Q113.44-27.8 114.39-28.78 115.34-29.75 115.34-31.45L115.34-31.45 115.34-33.7 125.94-33.7 125.94-27.8 132.69-27.8 132.69-19.6 125.94-19.6 125.94-11.4Q125.94-9.75 126.67-8.97 127.39-8.2 128.84-8.2L128.84-8.2Q130.74-8.2 132.99-8.65L132.99-8.65 132.99-0.8Q131.59-0.25 129.22 0.23 126.84 0.7 124.39 0.7L124.39 0.7ZM149.39 11.1L149.39 2.9 151.59 2.9 151.59-19.6 149.39-19.6 149.39-27.8 163.09-27.8 163.09-24.4Q164.34-26 166.31-27.25 168.29-28.5 170.84-28.5L170.84-28.5Q175.94-28.5 178.51-24.7 181.09-20.9 181.09-13.9L181.09-13.9Q181.09-6.9 178.51-3.1 175.94 0.7 170.84 0.7L170.84 0.7Q168.29 0.7 166.31-0.55 164.34-1.8 163.09-3.4L163.09-3.4 163.09 2.9 166.54 2.9 166.54 11.1 149.39 11.1ZM165.99-8.2Q167.44-8.2 168.16-8.97 168.89-9.75 168.89-11.4L168.89-11.4 168.89-16.4Q168.89-18.05 168.16-18.82 167.44-19.6 165.99-19.6L165.99-19.6Q164.54-19.6 163.81-18.82 163.09-18.05 163.09-16.4L163.09-16.4 163.09-11.4Q163.09-9.75 163.81-8.97 164.54-8.2 165.99-8.2L165.99-8.2ZM209.43-8.2L211.63-8.2 211.63 0 198.43 0 198.43-3.4Q197.33-1.8 195.36-0.55 193.38 0.7 190.53 0.7L190.53 0.7Q186.78 0.7 184.63-1.3 182.48-3.3 182.48-6.95L182.48-6.95Q182.48-16.4 198.53-16.65L198.53-16.65Q198.38-18.35 197.23-18.98 196.08-19.6 193.33-19.6L193.33-19.6Q191.08-19.6 188.51-19.13 185.93-18.65 183.78-17.85L183.78-17.85 183.78-27.05Q186.43-27.7 189.53-28.1 192.63-28.5 195.58-28.5L195.58-28.5Q203.03-28.5 206.23-25.8 209.43-23.1 209.43-17.45L209.43-17.45 209.43-8.2ZM198.43-11.4L198.43-11.7Q196.18-11.7 194.96-11.1 193.73-10.5 193.73-9.1L193.73-9.1Q193.73-8.25 194.26-7.73 194.78-7.2 195.73-7.2L195.73-7.2Q197.03-7.2 197.73-8.3 198.43-9.4 198.43-11.4L198.43-11.4ZM225.58 0.7Q220.28 0.7 217.61-1.88 214.93-4.45 214.93-10.55L214.93-10.55 214.93-19.6 212.73-19.6 212.73-27.8Q214.63-27.8 215.58-28.78 216.53-29.75 216.53-31.45L216.53-31.45 216.53-33.7 227.13-33.7 227.13-27.8 233.88-27.8 233.88-19.6 227.13-19.6 227.13-11.4Q227.13-9.75 227.86-8.97 228.58-8.2 230.03-8.2L230.03-8.2Q231.93-8.2 234.18-8.65L234.18-8.65 234.18-0.8Q232.78-0.25 230.41 0.23 228.03 0.7 225.58 0.7L225.58 0.7ZM266.78-8.2L268.98-8.2 268.98 0 253.18 0 253.18-8.2 255.28-8.2 255.28-16.4Q255.28-18.05 254.58-18.82 253.88-19.6 252.48-19.6L252.48-19.6Q249.48-19.6 249.48-16.4L249.48-16.4 249.48-8.2 251.58-8.2 251.58 0 235.78 0 235.78-8.2 237.98-8.2 237.98-30.7 235.78-30.7 235.78-38.9 249.48-38.9 249.48-23.9Q251.33-26.2 253.48-27.35 255.63-28.5 258.48-28.5L258.48-28.5Q262.63-28.5 264.7-25.9 266.78-23.3 266.78-18.75L266.78-18.75 266.78-8.2Z" opacity="1" transform="matrix(1,0,0,1,0,0)" fill="#ffffff" class="slogan-text-1" data-fill-palette-color="secondary" id="text-1"></path></svg></g></svg></g></svg></g></svg></g><g transform="matrix(1,0,0,1,116.6617205252974,0)"><svg viewBox="0 0 164.17415894940513 86.16311372068255" height="86.16311372068255" width="164.17415894940513"><g><svg xmlns="http://www.w3.org/2000/svg" xmlns:xlink="http://www.w3.org/1999/xlink" version="1.1" x="0" y="0" viewBox="5 26.381999999999998 90.001 47.23499999999999" enable-background="new 0 0 100 100" xml:space="preserve" height="86.16311372068255" width="164.17415894940513" class="icon-icon-0" data-fill-palette-color="accent" id="icon-0"><path fill="none" d="M50.482 28.475c-0.03 0.03-0.071 0.048-0.106 0.072C50.411 28.522 50.452 28.505 50.482 28.475z"></path><path fill="none" d="M50.628 28.259c-0.021 0.052-0.06 0.093-0.093 0.138C50.568 28.352 50.606 28.311 50.628 28.259z"></path><path fill="none" d="M50.553 27.618c0.025 0.037 0.058 0.069 0.075 0.111C50.61 27.688 50.578 27.655 50.553 27.618z"></path><path fill="none" d="M50.266 28.621c-0.082 0.034-0.171 0.053-0.265 0.053C50.095 28.674 50.184 28.655 50.266 28.621z"></path><path fill="none" d="M50.001 28.674c-0.375 0-0.68-0.304-0.68-0.68s0.305-0.68 0.68-0.68c-0.376 0-0.681 0.304-0.681 0.68S49.625 28.674 50.001 28.674z"></path><path fill="none" d="M50.001 27.314c0.094 0 0.183 0.019 0.265 0.053C50.184 27.333 50.095 27.314 50.001 27.314z"></path><path fill="none" d="M50.376 27.442c0.036 0.024 0.076 0.041 0.106 0.071C50.452 27.483 50.412 27.466 50.376 27.442z"></path><path fill="none" d="M54.305 70.684c0.375 0 0.678 0.305 0.68 0.68C54.984 70.988 54.68 70.684 54.305 70.684z"></path><path d="M86.63 69.109c0.108-0.227 0.177-0.478 0.177-0.746V28.107c0-0.953-0.772-1.725-1.727-1.725H14.92c-0.953 0-1.724 0.772-1.724 1.725v40.256c0 0.269 0.066 0.52 0.176 0.746H5v2.783c0 0.953 0.773 1.725 1.726 1.725h86.549c0.953 0 1.726-0.771 1.726-1.725v-2.783H86.63zM50.001 27.314c0.094 0 0.183 0.019 0.265 0.053 0.042 0.018 0.074 0.049 0.11 0.075 0.036 0.024 0.076 0.041 0.106 0.071 0.03 0.03 0.047 0.07 0.071 0.105 0.025 0.037 0.058 0.069 0.075 0.111 0.034 0.081 0.054 0.171 0.054 0.265s-0.02 0.183-0.054 0.265c-0.021 0.052-0.06 0.093-0.093 0.138-0.02 0.025-0.031 0.056-0.053 0.078-0.03 0.03-0.071 0.048-0.106 0.072-0.037 0.025-0.069 0.057-0.11 0.074-0.082 0.034-0.171 0.053-0.265 0.053-0.376 0-0.681-0.304-0.681-0.68S49.625 27.314 50.001 27.314zM16.143 29.708h67.714v36.571H16.143V29.708zM54.305 72.046h-8.608c-0.375 0-0.68-0.305-0.68-0.683 0-0.375 0.305-0.68 0.68-0.68h8.608c0.375 0 0.68 0.305 0.68 0.68C54.984 71.741 54.68 72.046 54.305 72.046z" fill="#ffffff" data-fill-palette-color="accent"></path><polygon points="25.039,48.313 25.039,49.536 25.039,49.537 44.878,49.537 44.878,49.536 44.878,48.313 44.878,48.312   25.039,48.312 " fill="#ffffff" data-fill-palette-color="accent"></polygon><rect x="36.633" y="58.613" width="3.488" height="1.225" fill="#ffffff" data-fill-palette-color="accent"></rect><rect x="46.552" y="48.313" width="3.488" height="1.224" fill="#ffffff" data-fill-palette-color="accent"></rect><rect x="39.377" y="46.296" width="3.488" height="1.224" fill="#ffffff" data-fill-palette-color="accent"></rect><rect x="20.692" y="31.829" width="3.489" height="1.224" fill="#ffffff" data-fill-palette-color="accent"></rect><rect x="20.692" y="42.131" width="3.489" height="1.224" fill="#ffffff" data-fill-palette-color="accent"></rect><rect x="20.692" y="46.296" width="3.489" height="1.224" fill="#ffffff" data-fill-palette-color="accent"></rect><rect x="20.692" y="48.313" width="3.489" height="1.224" fill="#ffffff" data-fill-palette-color="accent"></rect><rect x="20.692" y="44.191" width="5.832" height="1.224" fill="#ffffff" data-fill-palette-color="accent"></rect><rect x="25.039" y="46.296" width="12.665" height="1.224" fill="#ffffff" data-fill-palette-color="accent"></rect><rect x="20.692" y="50.373" width="3.489" height="1.223" fill="#ffffff" data-fill-palette-color="accent"></rect><rect x="20.692" y="54.494" width="3.489" height="1.223" fill="#ffffff" data-fill-palette-color="accent"></rect><rect x="53.637" y="50.373" width="3.488" height="1.223" fill="#ffffff" data-fill-palette-color="accent"></rect><rect x="25.039" y="50.373" width="27.761" height="1.223" fill="#ffffff" data-fill-palette-color="accent"></rect><rect x="20.692" y="52.434" width="27.792" height="1.223" fill="#ffffff" data-fill-palette-color="accent"></rect><rect x="25.039" y="54.494" width="23.444" height="1.223" fill="#ffffff" data-fill-palette-color="accent"></rect><rect x="20.692" y="56.555" width="17.012" height="1.223" fill="#ffffff" data-fill-palette-color="accent"></rect><rect x="20.692" y="58.613" width="14.267" height="1.225" fill="#ffffff" data-fill-palette-color="accent"></rect><rect x="20.692" y="60.674" width="7.134" height="1.225" fill="#ffffff" data-fill-palette-color="accent"></rect><rect x="20.692" y="62.736" width="5.832" height="1.223" fill="#ffffff" data-fill-palette-color="accent"></rect><rect x="20.692" y="33.89" width="8.694" height="1.224" fill="#ffffff" data-fill-palette-color="accent"></rect><rect x="20.692" y="35.95" width="11.594" height="1.224" fill="#ffffff" data-fill-palette-color="accent"></rect><rect x="20.692" y="38.01" width="8.694" height="1.224" fill="#ffffff" data-fill-palette-color="accent"></rect><rect x="20.692" y="40.071" width="8.694" height="1.224" fill="#ffffff" data-fill-palette-color="accent"></rect><rect x="18.798" y="31.829" width="1.058" height="1.224" fill="#ffffff" data-fill-palette-color="accent"></rect><rect x="18.798" y="33.89" width="1.058" height="1.224" fill="#ffffff" data-fill-palette-color="accent"></rect><rect x="18.798" y="35.95" width="1.058" height="1.224" fill="#ffffff" data-fill-palette-color="accent"></rect><rect x="18.798" y="38.01" width="1.058" height="1.224" fill="#ffffff" data-fill-palette-color="accent"></rect><rect x="18.798" y="40.071" width="1.058" height="1.224" fill="#ffffff" data-fill-palette-color="accent"></rect><rect x="18.798" y="42.131" width="1.058" height="1.224" fill="#ffffff" data-fill-palette-color="accent"></rect><rect x="18.798" y="44.191" width="1.058" height="1.224" fill="#ffffff" data-fill-palette-color="accent"></rect><rect x="18.798" y="46.252" width="1.058" height="1.224" fill="#ffffff" data-fill-palette-color="accent"></rect><rect x="18.798" y="48.313" width="1.058" height="1.224" fill="#ffffff" data-fill-palette-color="accent"></rect><rect x="18.798" y="50.373" width="1.058" height="1.223" fill="#ffffff" data-fill-palette-color="accent"></rect><rect x="18.798" y="52.434" width="1.058" height="1.223" fill="#ffffff" data-fill-palette-color="accent"></rect><rect x="18.798" y="54.494" width="1.058" height="1.223" fill="#ffffff" data-fill-palette-color="accent"></rect><rect x="18.798" y="56.555" width="1.058" height="1.223" fill="#ffffff" data-fill-palette-color="accent"></rect><rect x="18.798" y="58.613" width="1.058" height="1.225" fill="#ffffff" data-fill-palette-color="accent"></rect><rect x="18.798" y="60.674" width="1.058" height="1.225" fill="#ffffff" data-fill-palette-color="accent"></rect><rect x="18.798" y="62.736" width="1.058" height="1.223" fill="#ffffff" data-fill-palette-color="accent"></rect></svg></g></svg></g><g></g></svg></g><defs></defs></svg><rect width="395.52" height="173.5532450942642" fill="none" stroke="none" visibility="hidden"></rect></g></svg></g></svg>